<svg width="512" height="512" viewBox="0 0 512 512" fill="none" xmlns="http://www.w3.org/2000/svg">
<rect width="512" height="512" fill="white"/>
<path d="M64 64V307.01C79.9144 278.908 132.741 189.326 160.371 189.326C173.475 189.326 195.325 223.333 195.325 223.333C195.325 223.333 302.4 385.698 448.03 390.371V64H64ZM300.664 223.018L258.351 250.078L300.853 208.493L300.664 223.018ZM337.829 208.493L352.322 208.587L379.383 250.899L337.797 208.587L319.325 297.064V190.052L300.79 208.524L212.219 190.052H319.325L300.79 171.485L319.325 82.9457V190.021L337.734 171.548L337.923 156.96L380.267 129.963L337.829 171.485L426.305 190.021H319.325L337.829 208.493ZM259.204 129.015L300.821 171.548L286.265 171.327L259.204 129.015Z" fill="#116DD9"/>
<path d="M448.03 447.997V419.61C420.527 418.979 307.768 408.211 209.345 279.286L159.265 418.347V218.344C159.265 218.344 121.405 244.962 64.0316 355.321V447.997H448.03Z" fill="#9E9E9F"/>
</svg>
